# xmcd
#
# Track frame offsets:
#	150
#	16982
#	31464
#	47746
#	65003
#	80739
#	96584
#	113460
#	128966
#	146085
#	161917
#	178724
# Disc length: 2616 seconds
# Revision: 1
# Processed by: cddbd v1.5.2PL0 Copyright (c) Steve Scherf et al.
#
# Submitted via: libkcddb 0.20
#
DISCID=ac0a360c
DTITLE=Theo - Groﬂe Ponyparty im Stall
DYEAR=2006
DGENRE=Country
TTITLE0=Herzlich Willkommen
TTITLE1=Kikeriki, ein neuer Morgen ist da
TTITLE2=Ponyparty im Stall
TTITLE3=Ich schenk dir was
TTITLE4=Hoppla-Hopp
TTITLE5=Graugans Martin weiﬂ Bescheid
TTITLE6=Claras Liebeslied (Mein Herz gehˆrt nur dir)
TTITLE7=Wir sind die allerbesten Freunde
TTITLE8=Das Pony lernt heute schwimmen
TTITLE9=Tier bringen viel Freude und Spaﬂ
TTITLE10=Verschneite Winterwelt
TTITLE11=Psst, ganz leise nun
EXTD=
EXTT0=
EXTT1=
EXTT2=
EXTT3=
EXTT4=
EXTT5=
EXTT6=
EXTT7=
EXTT8=
EXTT9=
EXTT10=
EXTT11=
PLAYORDER=
